<svg id="visual" viewBox="0 0 900 600" width="900" height="600" xmlns="http://www.w3.org/2000/svg" xmlns:xlink="http://www.w3.org/1999/xlink" version="1.1"><rect x="0" y="0" width="900" height="600" fill="#001122"></rect><path d="M0 401L21.5 408.7C43 416.3 86 431.7 128.8 423.5C171.7 415.3 214.3 383.7 257.2 379C300 374.3 343 396.7 385.8 409.2C428.7 421.7 471.3 424.3 514.2 421.5C557 418.7 600 410.3 642.8 406.3C685.7 402.3 728.3 402.7 771.2 394.3C814 386 857 369 878.5 360.5L900 352L900 601L878.5 601C857 601 814 601 771.2 601C728.3 601 685.7 601 642.8 601C600 601 557 601 514.2 601C471.3 601 428.7 601 385.8 601C343 601 300 601 257.2 601C214.3 601 171.7 601 128.8 601C86 601 43 601 21.5 601L0 601Z" fill="#fa7268"></path><path d="M0 410L21.5 417.7C43 425.3 86 440.7 128.8 444.3C171.7 448 214.3 440 257.2 440.7C300 441.3 343 450.7 385.8 452.5C428.7 454.3 471.3 448.7 514.2 437.8C557 427 600 411 642.8 411C685.7 411 728.3 427 771.2 426.8C814 426.7 857 410.3 878.5 402.2L900 394L900 601L878.5 601C857 601 814 601 771.2 601C728.3 601 685.7 601 642.8 601C600 601 557 601 514.2 601C471.3 601 428.7 601 385.8 601C343 601 300 601 257.2 601C214.3 601 171.7 601 128.8 601C86 601 43 601 21.5 601L0 601Z" fill="#ef5f67"></path><path d="M0 475L21.5 473.7C43 472.3 86 469.7 128.8 473.5C171.7 477.3 214.3 487.7 257.2 492C300 496.3 343 494.7 385.8 486.8C428.7 479 471.3 465 514.2 459.2C557 453.3 600 455.7 642.8 458.7C685.7 461.7 728.3 465.3 771.2 471.3C814 477.3 857 485.7 878.5 489.8L900 494L900 601L878.5 601C857 601 814 601 771.2 601C728.3 601 685.7 601 642.8 601C600 601 557 601 514.2 601C471.3 601 428.7 601 385.8 601C343 601 300 601 257.2 601C214.3 601 171.7 601 128.8 601C86 601 43 601 21.5 601L0 601Z" fill="#e34c67"></path><path d="M0 494L21.5 492C43 490 86 486 128.8 484.8C171.7 483.7 214.3 485.3 257.2 485C300 484.7 343 482.3 385.8 489.2C428.7 496 471.3 512 514.2 519C557 526 600 524 642.8 525.8C685.7 527.7 728.3 533.3 771.2 529.2C814 525 857 511 878.5 504L900 497L900 601L878.5 601C857 601 814 601 771.2 601C728.3 601 685.7 601 642.8 601C600 601 557 601 514.2 601C471.3 601 428.7 601 385.8 601C343 601 300 601 257.2 601C214.3 601 171.7 601 128.8 601C86 601 43 601 21.5 601L0 601Z" fill="#d53867"></path><path d="M0 548L21.5 547.8C43 547.7 86 547.3 128.8 548.5C171.7 549.7 214.3 552.3 257.2 552.2C300 552 343 549 385.8 546.5C428.7 544 471.3 542 514.2 544C557 546 600 552 642.8 555.5C685.7 559 728.3 560 771.2 558.8C814 557.7 857 554.3 878.5 552.7L900 551L900 601L878.5 601C857 601 814 601 771.2 601C728.3 601 685.7 601 642.8 601C600 601 557 601 514.2 601C471.3 601 428.7 601 385.8 601C343 601 300 601 257.2 601C214.3 601 171.7 601 128.8 601C86 601 43 601 21.5 601L0 601Z" fill="#c62368"></path></svg>