<svg id="visual" viewBox="0 0 960 540" width="960" height="540" xmlns="http://www.w3.org/2000/svg" xmlns:xlink="http://www.w3.org/1999/xlink" version="1.1"><rect x="0" y="0" width="960" height="540" fill="#001220"></rect><defs><linearGradient id="grad1_0" x1="43.8%" y1="0%" x2="100%" y2="100%"><stop offset="14.444444444444446%" stop-color="#001220" stop-opacity="1"></stop><stop offset="85.55555555555554%" stop-color="#001220" stop-opacity="1"></stop></linearGradient></defs><defs><linearGradient id="grad2_0" x1="0%" y1="0%" x2="56.3%" y2="100%"><stop offset="14.444444444444446%" stop-color="#001220" stop-opacity="1"></stop><stop offset="85.55555555555554%" stop-color="#001220" stop-opacity="1"></stop></linearGradient></defs><g transform="translate(960, 0)"><path d="M0 486C-69.6 486.4 -139.3 486.9 -186 449C-232.7 411.2 -256.5 335 -280.7 280.7C-305 226.4 -329.7 193.9 -364 150.8C-398.3 107.6 -442.2 53.8 -486 0L0 0Z" fill="#FBAE3C"></path></g><g transform="translate(0, 540)"><path d="M0 -486C55.2 -457.1 110.3 -428.3 168.8 -407.4C227.2 -386.6 288.9 -373.8 338.7 -338.7C388.5 -303.6 426.4 -246.2 449 -186C471.6 -125.8 478.8 -62.9 486 0L0 0Z" fill="#FBAE3C"></path></g></svg>