<svg id="visual" viewBox="0 0 960 540" width="960" height="540" xmlns="http://www.w3.org/2000/svg" xmlns:xlink="http://www.w3.org/1999/xlink" version="1.1"><rect x="0" y="0" width="960" height="540" fill="#001220"></rect><path d="M0 358L22.8 365C45.7 372 91.3 386 137 387C182.7 388 228.3 376 274 372.5C319.7 369 365.3 374 411.2 373.5C457 373 503 367 548.8 361.5C594.7 356 640.3 351 686 351.5C731.7 352 777.3 358 823 354.7C868.7 351.3 914.3 338.7 937.2 332.3L960 326L960 541L937.2 541C914.3 541 868.7 541 823 541C777.3 541 731.7 541 686 541C640.3 541 594.7 541 548.8 541C503 541 457 541 411.2 541C365.3 541 319.7 541 274 541C228.3 541 182.7 541 137 541C91.3 541 45.7 541 22.8 541L0 541Z" fill="#fa7268"></path><path d="M0 392L22.8 388.7C45.7 385.3 91.3 378.7 137 382.8C182.7 387 228.3 402 274 408C319.7 414 365.3 411 411.2 401.3C457 391.7 503 375.3 548.8 367.5C594.7 359.7 640.3 360.3 686 369.5C731.7 378.7 777.3 396.3 823 404C868.7 411.7 914.3 409.3 937.2 408.2L960 407L960 541L937.2 541C914.3 541 868.7 541 823 541C777.3 541 731.7 541 686 541C640.3 541 594.7 541 548.8 541C503 541 457 541 411.2 541C365.3 541 319.7 541 274 541C228.3 541 182.7 541 137 541C91.3 541 45.7 541 22.8 541L0 541Z" fill="#ef5f67"></path><path d="M0 425L22.8 421C45.7 417 91.3 409 137 406.3C182.7 403.7 228.3 406.3 274 409.5C319.7 412.7 365.3 416.3 411.2 419C457 421.7 503 423.3 548.8 424.3C594.7 425.3 640.3 425.7 686 424.7C731.7 423.7 777.3 421.3 823 420.5C868.7 419.7 914.3 420.3 937.2 420.7L960 421L960 541L937.2 541C914.3 541 868.7 541 823 541C777.3 541 731.7 541 686 541C640.3 541 594.7 541 548.8 541C503 541 457 541 411.2 541C365.3 541 319.7 541 274 541C228.3 541 182.7 541 137 541C91.3 541 45.7 541 22.8 541L0 541Z" fill="#e34c67"></path><path d="M0 464L22.8 464.3C45.7 464.7 91.3 465.3 137 460.3C182.7 455.3 228.3 444.7 274 439.7C319.7 434.7 365.3 435.3 411.2 442.7C457 450 503 464 548.8 465.5C594.7 467 640.3 456 686 451.3C731.7 446.7 777.3 448.3 823 446.7C868.7 445 914.3 440 937.2 437.5L960 435L960 541L937.2 541C914.3 541 868.7 541 823 541C777.3 541 731.7 541 686 541C640.3 541 594.7 541 548.8 541C503 541 457 541 411.2 541C365.3 541 319.7 541 274 541C228.3 541 182.7 541 137 541C91.3 541 45.7 541 22.8 541L0 541Z" fill="#d53867"></path><path d="M0 506L22.8 502C45.7 498 91.3 490 137 488.7C182.7 487.3 228.3 492.7 274 491.5C319.7 490.3 365.3 482.7 411.2 483.2C457 483.7 503 492.3 548.8 495.3C594.7 498.3 640.3 495.7 686 497.2C731.7 498.7 777.3 504.3 823 508.2C868.7 512 914.3 514 937.2 515L960 516L960 541L937.2 541C914.3 541 868.7 541 823 541C777.3 541 731.7 541 686 541C640.3 541 594.7 541 548.8 541C503 541 457 541 411.2 541C365.3 541 319.7 541 274 541C228.3 541 182.7 541 137 541C91.3 541 45.7 541 22.8 541L0 541Z" fill="#c62368"></path></svg>