<svg id="visual" viewBox="0 0 900 600" width="900" height="600" xmlns="http://www.w3.org/2000/svg" xmlns:xlink="http://www.w3.org/1999/xlink" version="1.1"><rect x="0" y="0" width="900" height="600" fill="#001220"></rect><defs><linearGradient id="grad1_0" x1="33.3%" y1="100%" x2="100%" y2="0%"><stop offset="20%" stop-color="#001220" stop-opacity="1"></stop><stop offset="80%" stop-color="#001220" stop-opacity="1"></stop></linearGradient></defs><defs><linearGradient id="grad2_0" x1="0%" y1="100%" x2="66.7%" y2="0%"><stop offset="20%" stop-color="#001220" stop-opacity="1"></stop><stop offset="80%" stop-color="#001220" stop-opacity="1"></stop></linearGradient></defs><g transform="translate(900, 600)"><path d="M-486.7 0C-483.1 -65.6 -479.4 -131.2 -449.7 -186.3C-420 -241.4 -364.4 -286 -309.7 -309.7C-255.1 -333.4 -201.5 -336.1 -150 -362.2C-98.6 -388.2 -49.3 -437.5 0 -486.7L0 0Z" fill="#FA7268"></path></g><g transform="translate(0, 0)"><path d="M486.7 0C480.9 64.3 475.2 128.7 449.7 186.3C424.2 243.9 379.1 294.7 328.8 328.8C278.5 362.9 222.9 380.2 167.2 403.7C111.6 427.3 55.8 457 0 486.7L0 0Z" fill="#FA7268"></path></g></svg>