<svg id="visual" viewBox="0 0 250 350" width="250" height="350" xmlns="http://www.w3.org/2000/svg" xmlns:xlink="http://www.w3.org/1999/xlink" version="1.1"><rect x="0" y="0" width="250" height="350" fill="#001220"></rect><defs><linearGradient id="grad1_0" x1="0%" y1="100%" x2="100%" y2="0%"><stop offset="30%" stop-color="#001220" stop-opacity="1"></stop><stop offset="70%" stop-color="#001220" stop-opacity="1"></stop></linearGradient></defs><defs><linearGradient id="grad2_0" x1="0%" y1="100%" x2="100%" y2="0%"><stop offset="30%" stop-color="#001220" stop-opacity="1"></stop><stop offset="70%" stop-color="#001220" stop-opacity="1"></stop></linearGradient></defs><g transform="translate(250, 350)"><path d="M-118.3 0C-112.6 -19.1 -107 -38.2 -97.9 -56.5C-88.7 -74.8 -76 -92.3 -59.1 -102.4C-42.2 -112.6 -21.1 -115.4 0 -118.3L0 0Z" fill="#FF6F61"></path></g><g transform="translate(0, 0)"><path d="M118.3 0C114.5 20.2 110.7 40.3 101.3 58.5C91.9 76.7 77 92.8 59.1 102.4C41.3 112.1 20.7 115.2 0 118.3L0 0Z" fill="#FF6F61"></path></g></svg>