<svg id="visual" viewBox="0 0 250 350" width="250" height="350" xmlns="http://www.w3.org/2000/svg" xmlns:xlink="http://www.w3.org/1999/xlink" version="1.1"><rect x="0" y="0" width="250" height="350" fill="#001220"></rect><defs><linearGradient id="grad1_0" x1="0%" y1="100%" x2="100%" y2="0%"><stop offset="30%" stop-color="#001220" stop-opacity="1"></stop><stop offset="70%" stop-color="#001220" stop-opacity="1"></stop></linearGradient></defs><defs><linearGradient id="grad2_0" x1="0%" y1="100%" x2="100%" y2="0%"><stop offset="30%" stop-color="#001220" stop-opacity="1"></stop><stop offset="70%" stop-color="#001220" stop-opacity="1"></stop></linearGradient></defs><g transform="translate(250, 350)"><path d="M-118.3 0C-114 -19.9 -109.8 -39.8 -100.5 -58C-91.1 -76.2 -76.7 -92.7 -59.1 -102.4C-41.6 -112.2 -20.8 -115.2 0 -118.3L0 0Z" fill="#6600FF"></path></g><g transform="translate(0, 0)"><path d="M118.3 0C113.1 19.4 107.9 38.7 98.7 57C89.5 75.3 76.3 92.4 59.1 102.4C42 112.5 21 115.4 0 118.3L0 0Z" fill="#6600FF"></path></g></svg>