<svg id="visual" viewBox="0 0 960 540" width="960" height="540" xmlns="http://www.w3.org/2000/svg" xmlns:xlink="http://www.w3.org/1999/xlink" version="1.1"><path d="M0 55L87 55L87 50L175 50L175 55L262 55L262 109L349 109L349 77L436 77L436 77L524 77L524 66L611 66L611 60L698 60L698 109L785 109L785 98L873 98L873 109L960 109L960 82L960 0L960 0L873 0L873 0L785 0L785 0L698 0L698 0L611 0L611 0L524 0L524 0L436 0L436 0L349 0L349 0L262 0L262 0L175 0L175 0L87 0L87 0L0 0Z" fill="#fa7268"></path><path d="M0 233L87 233L87 212L175 212L175 233L262 233L262 249L349 249L349 325L436 325L436 260L524 260L524 228L611 228L611 244L698 244L698 276L785 276L785 249L873 249L873 201L960 201L960 206L960 80L960 107L873 107L873 96L785 96L785 107L698 107L698 58L611 58L611 64L524 64L524 75L436 75L436 75L349 75L349 107L262 107L262 53L175 53L175 48L87 48L87 53L0 53Z" fill="#ea5e66"></path><path d="M0 379L87 379L87 368L175 368L175 352L262 352L262 309L349 309L349 390L436 390L436 401L524 401L524 357L611 357L611 325L698 325L698 401L785 401L785 298L873 298L873 282L960 282L960 341L960 204L960 199L873 199L873 247L785 247L785 274L698 274L698 242L611 242L611 226L524 226L524 258L436 258L436 323L349 323L349 247L262 247L262 231L175 231L175 210L87 210L87 231L0 231Z" fill="#d84a64"></path><path d="M0 438L87 438L87 422L175 422L175 444L262 444L262 374L349 374L349 455L436 455L436 476L524 476L524 395L611 395L611 379L698 379L698 433L785 433L785 379L873 379L873 363L960 363L960 406L960 339L960 280L873 280L873 296L785 296L785 399L698 399L698 323L611 323L611 355L524 355L524 399L436 399L436 388L349 388L349 307L262 307L262 350L175 350L175 366L87 366L87 377L0 377Z" fill="#c53762"></path><path d="M0 541L87 541L87 541L175 541L175 541L262 541L262 541L349 541L349 541L436 541L436 541L524 541L524 541L611 541L611 541L698 541L698 541L785 541L785 541L873 541L873 541L960 541L960 541L960 404L960 361L873 361L873 377L785 377L785 431L698 431L698 377L611 377L611 393L524 393L524 474L436 474L436 453L349 453L349 372L262 372L262 442L175 442L175 420L87 420L87 436L0 436Z" fill="#b0235f"></path></svg>