<svg id="visual" viewBox="0 0 960 540" width="960" height="540" xmlns="http://www.w3.org/2000/svg" xmlns:xlink="http://www.w3.org/1999/xlink" version="1.1"><rect x="0" y="0" width="960" height="540" fill="#001122"></rect><path d="M0 141L22.8 140.7C45.7 140.3 91.3 139.7 137 129C182.7 118.3 228.3 97.7 274 95.8C319.7 94 365.3 111 411.2 113.7C457 116.3 503 104.7 548.8 103.2C594.7 101.7 640.3 110.3 686 113.2C731.7 116 777.3 113 823 114.8C868.7 116.7 914.3 123.3 937.2 126.7L960 130L960 0L937.2 0C914.3 0 868.7 0 823 0C777.3 0 731.7 0 686 0C640.3 0 594.7 0 548.8 0C503 0 457 0 411.2 0C365.3 0 319.7 0 274 0C228.3 0 182.7 0 137 0C91.3 0 45.7 0 22.8 0L0 0Z" fill="#FF6F61" stroke-linecap="round" stroke-linejoin="miter"></path></svg>