<svg id="visual" viewBox="0 0 960 540" width="960" height="540" xmlns="http://www.w3.org/2000/svg" xmlns:xlink="http://www.w3.org/1999/xlink" version="1.1"><rect x="0" y="0" width="960" height="540" fill="#001122"></rect><path d="M0 48L40 52.3C80 56.7 160 65.3 240 67.2C320 69 400 64 480 56.3C560 48.7 640 38.3 720 39.5C800 40.7 880 53.3 920 59.7L960 66L960 0L920 0C880 0 800 0 720 0C640 0 560 0 480 0C400 0 320 0 240 0C160 0 80 0 40 0L0 0Z" fill="#FF6F61" stroke-linecap="round" stroke-linejoin="miter"></path></svg>