<svg id="visual" viewBox="0 0 960 540" width="960" height="540" xmlns="http://www.w3.org/2000/svg" xmlns:xlink="http://www.w3.org/1999/xlink" version="1.1"><path d="M0 152L14.5 145.7C29 139.3 58 126.7 87.2 143.8C116.3 161 145.7 208 174.8 218C204 228 233 201 262 182C291 163 320 152 349 152.8C378 153.7 407 166.3 436.2 177.2C465.3 188 494.7 197 523.8 207C553 217 582 228 611 211C640 194 669 149 698 135.5C727 122 756 140 785.2 143.5C814.3 147 843.7 136 872.8 127C902 118 931 111 945.5 107.5L960 104L960 0L945.5 0C931 0 902 0 872.8 0C843.7 0 814.3 0 785.2 0C756 0 727 0 698 0C669 0 640 0 611 0C582 0 553 0 523.8 0C494.7 0 465.3 0 436.2 0C407 0 378 0 349 0C320 0 291 0 262 0C233 0 204 0 174.8 0C145.7 0 116.3 0 87.2 0C58 0 29 0 14.5 0L0 0Z" fill="#ff9e92"></path><path d="M0 287L14.5 285.2C29 283.3 58 279.7 87.2 291.3C116.3 303 145.7 330 174.8 328.3C204 326.7 233 296.3 262 279.3C291 262.3 320 258.7 349 271.2C378 283.7 407 312.3 436.2 323.2C465.3 334 494.7 327 523.8 324.3C553 321.7 582 323.3 611 314.3C640 305.3 669 285.7 698 295.5C727 305.3 756 344.7 785.2 345.5C814.3 346.3 843.7 308.7 872.8 290.7C902 272.7 931 274.3 945.5 275.2L960 276L960 102L945.5 105.5C931 109 902 116 872.8 125C843.7 134 814.3 145 785.2 141.5C756 138 727 120 698 133.5C669 147 640 192 611 209C582 226 553 215 523.8 205C494.7 195 465.3 186 436.2 175.2C407 164.3 378 151.7 349 150.8C320 150 291 161 262 180C233 199 204 226 174.8 216C145.7 206 116.3 159 87.2 141.8C58 124.7 29 137.3 14.5 143.7L0 150Z" fill="#ff8779"></path><path d="M0 357L14.5 351.7C29 346.3 58 335.7 87.2 349.2C116.3 362.7 145.7 400.3 174.8 403C204 405.7 233 373.3 262 358.2C291 343 320 345 349 355.8C378 366.7 407 386.3 436.2 394.3C465.3 402.3 494.7 398.7 523.8 396.8C553 395 582 395 611 383.3C640 371.7 669 348.3 698 355.5C727 362.7 756 400.3 785.2 399.5C814.3 398.7 843.7 359.3 872.8 344.2C902 329 931 338 945.5 342.5L960 347L960 274L945.5 273.2C931 272.3 902 270.7 872.8 288.7C843.7 306.7 814.3 344.3 785.2 343.5C756 342.7 727 303.3 698 293.5C669 283.7 640 303.3 611 312.3C582 321.3 553 319.7 523.8 322.3C494.7 325 465.3 332 436.2 321.2C407 310.3 378 281.7 349 269.2C320 256.7 291 260.3 262 277.3C233 294.3 204 324.7 174.8 326.3C145.7 328 116.3 301 87.2 289.3C58 277.7 29 281.3 14.5 283.2L0 285Z" fill="#ff6f61"></path><path d="M0 417L14.5 415.2C29 413.3 58 409.7 87.2 420.5C116.3 431.3 145.7 456.7 174.8 462C204 467.3 233 452.7 262 441.8C291 431 320 424 349 430.3C378 436.7 407 456.3 436.2 469.8C465.3 483.3 494.7 490.7 523.8 492.5C553 494.3 582 490.7 611 473.5C640 456.3 669 425.7 698 425.7C727 425.7 756 456.3 785.2 462.7C814.3 469 843.7 451 872.8 444.7C902 438.3 931 443.7 945.5 446.3L960 449L960 345L945.5 340.5C931 336 902 327 872.8 342.2C843.7 357.3 814.3 396.7 785.2 397.5C756 398.3 727 360.7 698 353.5C669 346.3 640 369.7 611 381.3C582 393 553 393 523.8 394.8C494.7 396.7 465.3 400.3 436.2 392.3C407 384.3 378 364.7 349 353.8C320 343 291 341 262 356.2C233 371.3 204 403.7 174.8 401C145.7 398.3 116.3 360.7 87.2 347.2C58 333.7 29 344.3 14.5 349.7L0 355Z" fill="#e15d50"></path><path d="M0 541L14.5 541C29 541 58 541 87.2 541C116.3 541 145.7 541 174.8 541C204 541 233 541 262 541C291 541 320 541 349 541C378 541 407 541 436.2 541C465.3 541 494.7 541 523.8 541C553 541 582 541 611 541C640 541 669 541 698 541C727 541 756 541 785.2 541C814.3 541 843.7 541 872.8 541C902 541 931 541 945.5 541L960 541L960 447L945.5 444.3C931 441.7 902 436.3 872.8 442.7C843.7 449 814.3 467 785.2 460.7C756 454.3 727 423.7 698 423.7C669 423.7 640 454.3 611 471.5C582 488.7 553 492.3 523.8 490.5C494.7 488.7 465.3 481.3 436.2 467.8C407 454.3 378 434.7 349 428.3C320 422 291 429 262 439.8C233 450.7 204 465.3 174.8 460C145.7 454.7 116.3 429.3 87.2 418.5C58 407.7 29 411.3 14.5 413.2L0 415Z" fill="#c44c40"></path></svg>