<svg id="visual" viewBox="0 0 960 540" width="960" height="540" xmlns="http://www.w3.org/2000/svg" xmlns:xlink="http://www.w3.org/1999/xlink" version="1.1"><rect x="0" y="0" width="960" height="540" fill="#001122"></rect><path d="M0 174L22.8 167.7C45.7 161.3 91.3 148.7 137 146.3C182.7 144 228.3 152 274 153.7C319.7 155.3 365.3 150.7 411.2 156.7C457 162.7 503 179.3 548.8 178.5C594.7 177.7 640.3 159.3 686 149.8C731.7 140.3 777.3 139.7 823 142.8C868.7 146 914.3 153 937.2 156.5L960 160L960 0L937.2 0C914.3 0 868.7 0 823 0C777.3 0 731.7 0 686 0C640.3 0 594.7 0 548.8 0C503 0 457 0 411.2 0C365.3 0 319.7 0 274 0C228.3 0 182.7 0 137 0C91.3 0 45.7 0 22.8 0L0 0Z" fill="#FF6F61" stroke-linecap="round" stroke-linejoin="miter"></path></svg>